<?xml version="1.0" encoding="UTF-8"?>
<svg fill="#FFFFFF" width="100pt" height="100pt" version="1.1" viewBox="0 0 100 100" xmlns="http://www.w3.org/2000/svg">
 <path d="m0 16.668c0-3.0703 2.4727-5.5586 5.5195-5.5586h88.961c3.0469 0 5.5195 2.4688 5.5195 5.5586 0 3.0664-2.4727 5.5547-5.5195 5.5547h-88.961c-3.0469 0-5.5195-2.4648-5.5195-5.5547zm0 33.332c0-3.0664 2.4727-5.5547 5.5195-5.5547h88.961c3.0469 0 5.5195 2.4648 5.5195 5.5547 0 3.0664-2.4727 5.5547-5.5195 5.5547h-88.961c-3.0469 0-5.5195-2.4648-5.5195-5.5547zm0 33.332c0-3.0664 2.4727-5.5547 5.5195-5.5547h88.961c3.0469 0 5.5195 2.4648 5.5195 5.5547 0 3.0703-2.4727 5.5586-5.5195 5.5586h-88.961c-3.0469 0-5.5195-2.4688-5.5195-5.5586z" fill-rule="evenodd"/>
</svg>
