<?xml version="1.0" encoding="UTF-8"?>
<svg fill="#FFFFFF" width="100pt" height="100pt" version="1.1" viewBox="0 0 100 100" xmlns="http://www.w3.org/2000/svg">
 <path d="m7.6133 0c-2.0469 0-3.8633 1.1367-5 2.1602-1.0234 0.90625-2.6133 3.5234-2.6133 5v85.684c0 2.5 3.5234 7.1602 7.6133 7.1602h85.227c2.9531 0 7.1602-4.2031 7.1602-7.1602v-74.094l-18.75-18.75zm7.6133 3.1836h51.59v20.797c0 2.3867-2.3867 4.7734-4.7734 4.7734h-42.047c-2.3867 0-4.7734-2.3867-4.7734-4.7734zm40.137 3.0664c-1.9141 0-3.457 1.543-3.457 3.457v12.152c0 1.9141 1.543 3.457 3.457 3.457h4.207c1.9141 0 3.457-1.543 3.457-3.457v-12.152c0.003906-1.9141-1.5391-3.457-3.457-3.457zm-36.953 51.703h63.184c1.4766 0 3.1836 1.1367 3.1836 2.5v11.59h-69.547v-11.59c0-1.3633 1.7031-2.5 3.1836-2.5zm-3.1836 15.227h69.547v11.59h-69.547zm0 12.84h69.547v10.797h-69.547z" fill-rule="evenodd"/>
</svg>
